<svg aria-hidden="true" style="position: absolute; width: 0; height: 0; overflow: hidden;" version="1.1" xmlns="http://www.w3.org/2000/svg" xmlns:xlink="http://www.w3.org/1999/xlink">
<defs>
<symbol id="icon-hero" viewBox="0 0 32 32">
<path fill="#fff" style="fill: var(--color1, #fff)" d="M15.907 12.651l0.879 2.376 2.376 0.879-2.376 0.879-0.879 2.376-0.879-2.376-2.376-0.879 2.376-0.879 0.879-2.376zM2.002 16.041l0.178 0.050 0.005-0.414-0.179 0.043c-0.098 0.025-0.201 0.050-0.311 0.077-0.109 0.025-0.215 0.049-0.316 0.074v0.012l0.317 0.078c0.107 0.025 0.209 0.052 0.306 0.081zM2.976 16.755l-1.934-0.63 0.006-0.527 1.948-0.584-0.006 0.464-0.463 0.114-0.007 0.592 0.46 0.125-0.005 0.446zM3.154 13.831l-1.447-0.293 0.071-0.35 0.26 0.022 0.002-0.012c-0.087-0.072-0.146-0.15-0.177-0.233-0.034-0.084-0.043-0.163-0.028-0.236 0.008-0.041 0.018-0.074 0.029-0.1 0.009-0.026 0.021-0.048 0.035-0.066l0.356 0.145c-0.024 0.044-0.044 0.095-0.055 0.149l-0.001 0.004c-0.011 0.054-0.002 0.116 0.026 0.185 0.027 0.066 0.085 0.129 0.175 0.187l0.84 0.17-0.087 0.429zM3.925 11.211c-0.066 0.17-0.162 0.274-0.288 0.31-0.126 0.035-0.268 0.021-0.428-0.040l-0.558-0.215-0.073 0.189-0.303-0.116 0.065-0.218-0.349-0.188 0.13-0.339 0.367 0.141 0.127-0.331 0.319 0.123-0.127 0.331 0.553 0.213c0.078 0.030 0.14 0.036 0.188 0.018 0.046-0.020 0.079-0.058 0.1-0.111 0.008-0.022 0.014-0.046 0.017-0.070 0.004-0.026 0.005-0.050 0.005-0.071l0.322 0.051c-0.004 0.055-0.010 0.104-0.018 0.152l0.001-0.009c-0.012 0.069-0.029 0.13-0.053 0.187l0.002-0.006zM4.663 9.534l-1.439-0.495 0.237-0.364 0.652 0.253c0.068 0.030 0.135 0.060 0.2 0.091s0.133 0.061 0.203 0.092l0.006-0.010c-0.049-0.046-0.103-0.097-0.158-0.146l-0.009-0.008c-0.054-0.052-0.105-0.104-0.154-0.157l-0.485-0.51 0.206-0.317 0.665 0.233c0.071 0.025 0.141 0.051 0.208 0.079 0.068 0.026 0.138 0.053 0.209 0.083l0.006-0.010c-0.056-0.053-0.111-0.102-0.167-0.147-0.059-0.052-0.112-0.1-0.164-0.15l0.002 0.001-0.498-0.49 0.221-0.339 1.045 1.101-0.279 0.429-0.567-0.209-0.197-0.079-0.208-0.089-0.006 0.010 0.166 0.154c0.053 0.046 0.105 0.094 0.155 0.143l0.423 0.431-0.273 0.419zM6.934 6.691c-0.086 0.084-0.192 0.147-0.311 0.182l-0.005 0.001c-0.053 0.014-0.115 0.023-0.178 0.023-0.070 0-0.138-0.010-0.202-0.029l0.005 0.001c-0.13-0.037-0.252-0.114-0.365-0.23-0.115-0.118-0.188-0.242-0.22-0.372-0.014-0.052-0.022-0.112-0.022-0.173 0-0.071 0.011-0.139 0.031-0.204l-0.001 0.005c0.037-0.123 0.103-0.229 0.19-0.313l0-0c0.085-0.084 0.192-0.146 0.311-0.178l0.005-0.001c0.054-0.015 0.117-0.024 0.181-0.024 0.068 0 0.134 0.010 0.196 0.029l-0.005-0.001c0.129 0.035 0.25 0.112 0.365 0.23 0.114 0.117 0.187 0.241 0.22 0.372 0.014 0.053 0.023 0.115 0.023 0.178 0 0.070-0.010 0.138-0.029 0.202l0.001-0.005c-0.038 0.122-0.103 0.226-0.189 0.309l-0 0zM6.687 6.437c0.064-0.062 0.086-0.136 0.066-0.222-0.021-0.087-0.076-0.177-0.165-0.268-0.090-0.092-0.178-0.15-0.263-0.172s-0.16-0.002-0.224 0.060c-0.066 0.064-0.088 0.138-0.068 0.224 0.021 0.084 0.077 0.173 0.167 0.265 0.089 0.091 0.175 0.149 0.261 0.174 0.085 0.022 0.161 0.002 0.226-0.062zM8.36 5.435l-0.822-1.227 0.297-0.199 0.169 0.199 0.010-0.006c-0.011-0.112 0.002-0.209 0.038-0.291 0.035-0.083 0.084-0.146 0.147-0.188 0.026-0.019 0.056-0.035 0.088-0.049l0.003-0.001c0.025-0.012 0.049-0.020 0.071-0.022l0.151 0.354c-0.056 0.017-0.105 0.040-0.149 0.071l0.002-0.001c-0.046 0.031-0.083 0.081-0.111 0.15-0.027 0.066-0.030 0.151-0.008 0.256l0.477 0.712-0.364 0.244zM10.211 4.312l-0.83-1.915 0.391-0.169 0.476 1.098 0.011-0.005 0.196-0.724 0.437-0.189-0.234 0.763 0.856 0.576-0.434 0.188-0.534-0.395-0.088 0.268 0.144 0.333-0.391 0.169zM13.206 3.318c-0.122 0.026-0.244 0.022-0.365-0.012-0.125-0.040-0.232-0.11-0.314-0.202l-0.001-0.001c-0.091-0.1-0.153-0.23-0.188-0.389-0.035-0.161-0.032-0.305 0.010-0.432 0.040-0.125 0.11-0.23 0.203-0.312l0.001-0.001c0.089-0.079 0.2-0.137 0.322-0.164l0.005-0.001c0.046-0.011 0.098-0.017 0.152-0.017 0.075 0 0.148 0.012 0.216 0.034l-0.005-0.001c0.125 0.038 0.232 0.108 0.314 0.199l0.001 0.001c0.090 0.098 0.153 0.228 0.188 0.389 0.035 0.159 0.031 0.303-0.010 0.432-0.040 0.125-0.11 0.232-0.202 0.314l-0.001 0.001c-0.089 0.078-0.199 0.135-0.319 0.161l-0.005 0.001zM13.131 2.972c0.087-0.019 0.145-0.070 0.174-0.154 0.028-0.085 0.029-0.19 0.002-0.314-0.027-0.126-0.071-0.221-0.132-0.285s-0.134-0.087-0.222-0.068c-0.089 0.020-0.148 0.071-0.177 0.154-0.027 0.083-0.026 0.187 0.001 0.313 0.027 0.124 0.070 0.22 0.129 0.286 0.061 0.064 0.136 0.086 0.225 0.067zM15.158 3.008l-0.045-1.133-0.196 0.007-0.013-0.324 0.196-0.022-0.003-0.080c-0.001-0.012-0.001-0.026-0.001-0.039 0-0.089 0.016-0.174 0.045-0.253l-0.002 0.005c0.032-0.087 0.087-0.157 0.164-0.212s0.182-0.085 0.315-0.090c0.061-0.002 0.118 0.001 0.17 0.011s0.094 0.020 0.127 0.031l-0.068 0.324c-0.026-0.009-0.052-0.015-0.078-0.018-0.019-0.004-0.041-0.006-0.063-0.006-0.004 0-0.008 0-0.012 0l0.001-0c-0.054 0.002-0.095 0.020-0.123 0.055-0.029 0.033-0.041 0.087-0.039 0.162l0.004 0.089 0.265-0.010 0.014 0.342-0.265 0.010 0.045 1.133-0.437 0.017zM17.629 3.13c-0.181-0.022-0.305-0.090-0.371-0.204-0.064-0.114-0.086-0.255-0.065-0.425l0.072-0.594-0.201-0.024 0.039-0.322 0.227 0.010 0.098-0.384 0.36 0.044-0.047 0.39 0.352 0.043-0.041 0.34-0.352-0.043-0.071 0.588c-0.010 0.083-0.001 0.145 0.028 0.186 0.031 0.040 0.075 0.063 0.132 0.070 0.024 0.003 0.048 0.003 0.072-0 0.027-0.003 0.050-0.007 0.074-0.013l-0.003 0.001 0.030 0.324c-0.039 0.007-0.087 0.014-0.143 0.019-0.055 0.005-0.117 0.004-0.188-0.005zM19.204 3.377l0.635-1.988 0.417 0.133-0.156 0.488-0.1 0.246c0.064-0.029 0.14-0.054 0.219-0.070l0.007-0.001c0.085-0.019 0.175-0.013 0.27 0.017 0.153 0.049 0.247 0.135 0.283 0.259 0.038 0.123 0.029 0.272-0.027 0.447l-0.279 0.873-0.417-0.133 0.262-0.819c0.033-0.102 0.041-0.177 0.025-0.223-0.014-0.046-0.052-0.079-0.112-0.098-0.025-0.009-0.055-0.014-0.085-0.014-0.022 0-0.044 0.003-0.065 0.008l0.002-0c-0.060 0.016-0.112 0.036-0.161 0.062l0.004-0.002-0.303 0.95-0.417-0.133zM22.304 4.685c-0.123-0.069-0.218-0.158-0.287-0.267-0.065-0.102-0.104-0.226-0.104-0.36 0-0.001 0-0.002 0-0.002v0c-0.001-0.132 0.038-0.27 0.118-0.412 0.079-0.14 0.175-0.244 0.288-0.313 0.102-0.063 0.226-0.101 0.358-0.103h0.001c0.007-0 0.016-0 0.024-0 0.116 0 0.225 0.030 0.319 0.084l-0.003-0.002c0.123 0.069 0.209 0.154 0.257 0.254 0.051 0.099 0.070 0.207 0.058 0.323-0.010 0.115-0.048 0.231-0.114 0.349-0.034 0.061-0.071 0.113-0.111 0.162l0.001-0.002-0.771-0.433c-0.035 0.103-0.035 0.194 0 0.273 0.036 0.077 0.097 0.14 0.182 0.187 0.092 0.052 0.2 0.075 0.326 0.070l-0.002 0.303c-0.024 0.002-0.053 0.003-0.081 0.003-0.070 0-0.139-0.008-0.205-0.022l0.006 0.001c-0.097-0.019-0.184-0.052-0.263-0.096l0.005 0.002zM22.476 3.709l0.465 0.261c0.040-0.071 0.055-0.139 0.046-0.203-0.007-0.065-0.048-0.119-0.124-0.162-0.038-0.021-0.082-0.034-0.13-0.034-0.022 0-0.044 0.003-0.065 0.008l0.002-0c-0.069 0.014-0.133 0.057-0.193 0.131zM24.081 5.814l0.715-1.343 0.323 0.291-0.353 0.604c-0.040 0.063-0.081 0.124-0.121 0.183s-0.082 0.122-0.123 0.186l0.009 0.008c0.061-0.046 0.12-0.093 0.178-0.14 0.060-0.045 0.119-0.088 0.179-0.127l0.58-0.399 0.281 0.253-0.335 0.62c-0.047 0.088-0.084 0.152-0.122 0.214l0.012-0.021c-0.036 0.064-0.074 0.128-0.114 0.194l0.009 0.008c0.061-0.047 0.118-0.094 0.172-0.142 0.055-0.046 0.113-0.092 0.172-0.138l0.563-0.414 0.3 0.271-1.252 0.859-0.38-0.343 0.296-0.527 0.109-0.183c0.038-0.060 0.078-0.123 0.121-0.192l-0.009-0.008c-0.063 0.050-0.123 0.096-0.178 0.14-0.054 0.045-0.109 0.088-0.166 0.131l-0.492 0.35-0.371-0.335zM26.547 8.526c-0.081-0.115-0.129-0.237-0.144-0.365-0.003-0.024-0.005-0.051-0.005-0.079 0-0.107 0.025-0.207 0.069-0.297l-0.002 0.004c0.057-0.12 0.151-0.226 0.284-0.32 0.131-0.093 0.263-0.145 0.395-0.158 0.133-0.011 0.255 0.010 0.367 0.062 0.114 0.051 0.204 0.125 0.272 0.22 0.081 0.115 0.122 0.228 0.123 0.34 0 0.005 0 0.011 0 0.017 0 0.111-0.032 0.215-0.088 0.302l0.001-0.002c-0.059 0.1-0.143 0.188-0.253 0.266-0.049 0.034-0.104 0.067-0.162 0.094l-0.007 0.003-0.509-0.723c-0.076 0.078-0.115 0.16-0.118 0.247-0.001 0.085 0.027 0.168 0.083 0.247 0.060 0.086 0.148 0.154 0.264 0.204l-0.133 0.272c-0.094-0.036-0.175-0.082-0.248-0.138l0.002 0.002c-0.074-0.056-0.138-0.12-0.191-0.193l-0.002-0.003zM27.123 7.72l0.307 0.436c0.066-0.047 0.109-0.101 0.129-0.163 0.022-0.062 0.008-0.128-0.042-0.2-0.038-0.054-0.095-0.093-0.161-0.107l-0.002-0c-0.068-0.018-0.145-0.006-0.23 0.035zM27.788 10.72c-0.057-0.129-0.081-0.257-0.070-0.386s0.055-0.246 0.133-0.352c0.078-0.107 0.192-0.193 0.341-0.259 0.147-0.065 0.286-0.091 0.418-0.078s0.251 0.061 0.351 0.133l-0.002-0.001c0.102 0.072 0.176 0.162 0.224 0.269 0.057 0.129 0.075 0.248 0.055 0.357-0.020 0.115-0.072 0.215-0.147 0.293l0-0c-0.077 0.086-0.177 0.157-0.3 0.212-0.052 0.024-0.113 0.045-0.177 0.061l-0.008 0.002-0.359-0.808c-0.090 0.062-0.144 0.135-0.163 0.219-0.017 0.084-0.006 0.17 0.034 0.259 0.043 0.096 0.116 0.18 0.219 0.251l-0.183 0.241c-0.082-0.052-0.153-0.112-0.213-0.181l-0.001-0.001c-0.060-0.066-0.11-0.141-0.148-0.224l-0.002-0.005zM28.509 10.041l0.216 0.487c0.074-0.033 0.127-0.078 0.158-0.135 0.034-0.056 0.033-0.124-0.003-0.204-0.028-0.062-0.077-0.11-0.137-0.136l-0.002-0.001c-0.063-0.030-0.141-0.034-0.233-0.011zM28.468 12.461l2.035-0.461 0.094 0.415-1.167 0.265 0.003 0.012 0.675 0.326 0.105 0.465-0.707-0.371-0.724 0.735-0.105-0.461 0.486-0.452-0.248-0.136-0.354 0.080-0.094-0.415zM29.906 15.422l-0.18-0.044 0.009 0.414 0.177-0.048c0.097-0.028 0.199-0.057 0.308-0.087 0.109-0.028 0.213-0.056 0.314-0.084l-0-0.012c-0.104-0.022-0.21-0.044-0.32-0.068-0.139-0.027-0.243-0.052-0.345-0.079l0.037 0.009zM28.909 14.74l1.953 0.566 0.011 0.527-1.928 0.648-0.010-0.464 0.459-0.129-0.012-0.592-0.464-0.109-0.009-0.447zM28.827 17.668l1.456 0.246-0.059 0.352-0.26-0.014-0.002 0.012c0.089 0.069 0.151 0.145 0.185 0.228 0.036 0.083 0.048 0.161 0.036 0.235-0.006 0.038-0.015 0.072-0.027 0.105l0.001-0.003c-0.008 0.026-0.019 0.048-0.033 0.068l0-0.001-0.361-0.133c0.023-0.045 0.041-0.097 0.050-0.151l0-0.003c0.009-0.055-0.002-0.116-0.033-0.184-0.029-0.065-0.089-0.126-0.181-0.181l-0.845-0.143 0.073-0.431zM28.142 20.312c0.060-0.172 0.153-0.279 0.278-0.319 0.125-0.038 0.268-0.030 0.429 0.026l0.565 0.196 0.066-0.191 0.307 0.106-0.058 0.22 0.354 0.177-0.119 0.343-0.371-0.129-0.116 0.334-0.323-0.112 0.116-0.334-0.56-0.195c-0.079-0.027-0.141-0.031-0.188-0.012-0.045 0.022-0.078 0.060-0.097 0.114-0.007 0.021-0.013 0.045-0.015 0.069l-0 0.001c-0.003 0.026-0.004 0.050-0.003 0.071l-0.323-0.040c0.001-0.040 0.005-0.088 0.012-0.144 0.006-0.055 0.021-0.116 0.045-0.183zM27.459 22.012l1.454 0.448-0.225 0.372-0.66-0.232c-0.128-0.050-0.195-0.078-0.261-0.107l0.059 0.023c0.014 0.002-0.054-0.027-0.122-0.055l-0.084-0.031-0.006 0.010c0.057 0.051 0.114 0.1 0.171 0.149 0.056 0.050 0.109 0.1 0.159 0.152l0.501 0.494-0.196 0.324-0.672-0.212c-0.104-0.032-0.174-0.056-0.243-0.082l0.033 0.011c-0.117-0.038-0.187-0.064-0.256-0.091l0.045 0.015-0.006 0.010c0.058 0.051 0.115 0.098 0.172 0.142 0.056 0.045 0.112 0.093 0.167 0.143l0.514 0.474-0.209 0.347-1.080-1.067 0.265-0.438 0.574 0.19 0.2 0.072 0.211 0.082 0.006-0.010c-0.061-0.053-0.118-0.102-0.171-0.149-0.060-0.049-0.112-0.094-0.162-0.141l0.003 0.002-0.437-0.417 0.259-0.428zM25.282 24.928c0.084-0.087 0.188-0.154 0.305-0.192l0.005-0.001c0.060-0.018 0.129-0.029 0.2-0.029 0.062 0 0.122 0.008 0.18 0.023l-0.005-0.001c0.131 0.033 0.255 0.105 0.373 0.218 0.119 0.114 0.196 0.236 0.232 0.364s0.038 0.253 0.005 0.372c-0.033 0.125-0.096 0.233-0.18 0.319l0-0c-0.083 0.087-0.188 0.152-0.305 0.188l-0.005 0.001c-0.061 0.019-0.13 0.031-0.202 0.031-0.060 0-0.119-0.008-0.175-0.023l0.005 0.001c-0.13-0.031-0.254-0.104-0.372-0.218-0.117-0.113-0.195-0.234-0.232-0.364-0.018-0.060-0.029-0.129-0.029-0.2 0-0.062 0.008-0.122 0.023-0.179l-0.001 0.005c0.034-0.123 0.096-0.23 0.18-0.315l-0 0zM25.538 25.174c-0.062 0.064-0.081 0.139-0.059 0.224 0.024 0.087 0.082 0.174 0.173 0.262 0.093 0.090 0.182 0.144 0.268 0.163s0.16-0.003 0.222-0.067c0.063-0.066 0.084-0.141 0.061-0.226-0.024-0.084-0.082-0.17-0.175-0.26-0.091-0.088-0.18-0.143-0.266-0.166-0.086-0.020-0.161 0.004-0.224 0.069zM23.898 26.229l0.861 1.199-0.29 0.208-0.175-0.193-0.010 0.007c0.015 0.112 0.005 0.209-0.029 0.292-0.032 0.084-0.079 0.148-0.14 0.192-0.026 0.020-0.056 0.038-0.087 0.052l-0.003 0.001c-0.020 0.011-0.044 0.020-0.069 0.025l-0.001 0-0.163-0.349c0.055-0.018 0.103-0.044 0.146-0.075l-0.001 0.001c0.045-0.032 0.081-0.083 0.106-0.153 0.025-0.067 0.025-0.152-0.001-0.256l-0.5-0.696 0.356-0.255zM22.085 27.412l0.892 1.887-0.385 0.182-0.511-1.082-0.011 0.005-0.172 0.73-0.431 0.204 0.209-0.77-0.875-0.548 0.428-0.202 0.547 0.377 0.079-0.271-0.155-0.328 0.385-0.182zM19.124 28.503c0.055-0.014 0.118-0.023 0.182-0.023s0.128 0.008 0.188 0.024l-0.005-0.001c0.127 0.036 0.236 0.103 0.321 0.192l0 0c0.094 0.097 0.161 0.225 0.201 0.382 0.040 0.16 0.041 0.304 0.004 0.432-0.036 0.126-0.103 0.234-0.193 0.318l-0 0c-0.087 0.083-0.196 0.144-0.316 0.175l-0.005 0.001c-0.052 0.014-0.112 0.022-0.174 0.022-0.067 0-0.132-0.009-0.194-0.027l0.005 0.001c-0.127-0.034-0.236-0.1-0.32-0.189l-0-0c-0.094-0.095-0.16-0.223-0.201-0.382-0.040-0.158-0.041-0.302-0.004-0.432 0.036-0.127 0.103-0.236 0.192-0.321l0-0c0.087-0.081 0.195-0.141 0.314-0.171l0.005-0.001zM19.21 28.847c-0.087 0.022-0.143 0.075-0.169 0.159-0.026 0.086-0.023 0.191 0.008 0.314 0.031 0.125 0.078 0.219 0.141 0.281s0.137 0.082 0.224 0.060c0.089-0.022 0.146-0.076 0.172-0.16 0.024-0.084 0.020-0.188-0.011-0.314-0.031-0.123-0.077-0.217-0.138-0.281-0.063-0.062-0.138-0.082-0.227-0.060zM17.183 28.877l0.082 1.131 0.196-0.014 0.023 0.324-0.195 0.029 0.006 0.080c0.002 0.019 0.003 0.041 0.003 0.063 0 0.081-0.013 0.158-0.037 0.231l0.002-0.005c-0.030 0.089-0.085 0.163-0.156 0.216l-0.001 0.001c-0.076 0.057-0.18 0.090-0.312 0.1-0.061 0.004-0.118 0.003-0.17-0.006-0.050-0.007-0.093-0.017-0.135-0.028l0.007 0.002 0.057-0.326c0.026 0.008 0.053 0.013 0.079 0.015 0.026 0.004 0.051 0.005 0.075 0.004 0.054-0.004 0.094-0.024 0.121-0.060 0.028-0.034 0.038-0.088 0.033-0.164l-0.006-0.089-0.264 0.019-0.025-0.341 0.264-0.019-0.082-1.131 0.437-0.031zM14.709 28.836c0.182 0.016 0.308 0.080 0.377 0.192 0.068 0.112 0.094 0.252 0.079 0.422l-0.053 0.596 0.202 0.018-0.029 0.323-0.227-0.002-0.085 0.387-0.362-0.032 0.035-0.391-0.353-0.031 0.030-0.341 0.353 0.031 0.052-0.59c0.007-0.083-0.004-0.145-0.034-0.185-0.032-0.039-0.077-0.061-0.135-0.066-0.008-0.001-0.016-0.001-0.025-0.001-0.017 0-0.033 0.001-0.049 0.004l0.002-0c-0.026 0.004-0.050 0.009-0.070 0.015l-0.040-0.323c0.039-0.009 0.086-0.016 0.143-0.023 0.054-0.007 0.117-0.008 0.188-0.001zM13.127 28.64l-0.57 2.007-0.421-0.119 0.14-0.492 0.092-0.249c-0.064 0.031-0.138 0.058-0.216 0.077l-0.008 0.002c-0.084 0.021-0.175 0.019-0.27-0.009-0.155-0.044-0.252-0.127-0.291-0.25-0.042-0.121-0.038-0.271 0.013-0.448l0.25-0.882 0.421 0.119-0.235 0.828c-0.029 0.103-0.035 0.178-0.017 0.224 0.016 0.046 0.055 0.077 0.116 0.095 0.054 0.015 0.103 0.016 0.148 0.002 0.045-0.012 0.096-0.034 0.154-0.064l0.272-0.959 0.421 0.119zM9.986 27.435c0.125 0.065 0.224 0.151 0.296 0.257s0.111 0.226 0.116 0.358c0.005 0.132-0.030 0.271-0.105 0.415-0.074 0.143-0.167 0.25-0.278 0.322-0.1 0.066-0.222 0.108-0.353 0.114l-0.002 0c-0.014 0.001-0.029 0.002-0.045 0.002-0.108 0-0.211-0.027-0.301-0.074l0.004 0.002c-0.125-0.065-0.214-0.147-0.265-0.245-0.044-0.078-0.071-0.172-0.071-0.271 0-0.017 0.001-0.035 0.002-0.051l-0 0.002c0.006-0.115 0.040-0.233 0.102-0.353 0.033-0.062 0.068-0.116 0.107-0.166l-0.002 0.002 0.785 0.407c0.032-0.104 0.029-0.195-0.009-0.273-0.039-0.076-0.101-0.136-0.188-0.181-0.093-0.049-0.203-0.068-0.328-0.060l-0.007-0.302c0.034-0.004 0.073-0.007 0.113-0.007 0.059 0 0.118 0.005 0.174 0.016l-0.006-0.001c0.097 0.017 0.183 0.045 0.261 0.085zM9.846 28.415l-0.473-0.245c-0.037 0.072-0.050 0.14-0.039 0.204 0.009 0.065 0.052 0.117 0.13 0.158 0.060 0.031 0.125 0.038 0.194 0.020 0.068-0.016 0.131-0.062 0.188-0.137zM8.173 26.363l-0.671 1.366-0.332-0.281 0.333-0.615c0.038-0.064 0.076-0.126 0.115-0.187s0.078-0.124 0.117-0.189l-0.009-0.008c-0.059 0.049-0.117 0.097-0.174 0.145-0.049 0.041-0.106 0.084-0.165 0.126l-0.010 0.007-0.567 0.417-0.289-0.244 0.315-0.631c0.034-0.068 0.068-0.133 0.104-0.197 0.034-0.065 0.070-0.13 0.108-0.197l-0.009-0.008c-0.059 0.049-0.115 0.098-0.167 0.147-0.054 0.048-0.11 0.096-0.167 0.143l-0.549 0.433-0.309-0.261 1.224-0.899 0.391 0.33-0.278 0.537-0.103 0.186c-0.036 0.061-0.074 0.126-0.115 0.196l0.009 0.008 0.174-0.145c0.052-0.047 0.106-0.092 0.162-0.136l0.48-0.366 0.382 0.323zM5.619 23.734c0.085 0.113 0.137 0.233 0.156 0.36 0.005 0.030 0.008 0.065 0.008 0.1 0 0.099-0.021 0.193-0.059 0.277l0.002-0.004c-0.053 0.122-0.144 0.231-0.274 0.329-0.128 0.097-0.258 0.154-0.39 0.171-0.028 0.004-0.060 0.006-0.093 0.006-0.1 0-0.195-0.020-0.281-0.058l0.005 0.002c-0.113-0.045-0.207-0.118-0.277-0.21l-0.001-0.002c-0.085-0.113-0.129-0.224-0.134-0.335-0.007-0.112 0.019-0.218 0.077-0.319 0.055-0.101 0.137-0.193 0.244-0.274 0.048-0.036 0.102-0.070 0.159-0.099l0.006-0.003 0.532 0.706c0.074-0.080 0.11-0.164 0.11-0.25-0.002-0.085-0.033-0.167-0.091-0.244-0.063-0.084-0.153-0.149-0.27-0.195l0.124-0.276c0.087 0.029 0.17 0.072 0.25 0.129s0.146 0.12 0.199 0.189zM5.070 24.558l-0.321-0.425c-0.065 0.049-0.106 0.105-0.124 0.168-0.020 0.062-0.004 0.128 0.049 0.198 0.041 0.054 0.096 0.088 0.166 0.102 0.069 0.015 0.145 0.001 0.229-0.042zM4.308 21.581c0.061 0.127 0.089 0.255 0.083 0.383-0.006 0.134-0.051 0.257-0.123 0.359l0.001-0.002c-0.075 0.109-0.186 0.199-0.332 0.27-0.145 0.070-0.283 0.101-0.415 0.092s-0.253-0.052-0.355-0.122l0.002 0.002c-0.1-0.065-0.179-0.153-0.231-0.258l-0.002-0.004c-0.061-0.127-0.084-0.245-0.066-0.355 0.015-0.111 0.060-0.21 0.137-0.298 0.074-0.089 0.172-0.162 0.293-0.221 0.034-0.016 0.069-0.031 0.104-0.044 0.034-0.012 0.060-0.020 0.078-0.024l0.385 0.796c0.088-0.065 0.14-0.139 0.156-0.224 0.014-0.084 0-0.17-0.042-0.258-0.046-0.095-0.122-0.176-0.227-0.244l0.175-0.247c0.079 0.045 0.153 0.104 0.22 0.174s0.12 0.146 0.158 0.224zM3.609 22.283l-0.232-0.479c-0.073 0.035-0.124 0.082-0.154 0.14-0.032 0.057-0.029 0.125 0.009 0.204 0.030 0.061 0.077 0.105 0.144 0.132 0.064 0.028 0.142 0.029 0.233 0.003zM3.571 19.863l-2.019 0.528-0.108-0.412 1.158-0.302-0.003-0.012-0.686-0.304-0.121-0.461 0.719 0.348 0.7-0.759 0.12 0.458-0.471 0.468 0.252 0.128 0.351-0.092 0.108 0.412z"></path>
</symbol>
<symbol id="icon-clock" viewBox="0 0 31 32">
<path fill="none" stroke="#fff" style="stroke: var(--color1, #fff)" stroke-linejoin="round" stroke-linecap="round" stroke-miterlimit="4" stroke-width="1.92" d="M28.16 16c0 7.066-5.734 12.8-12.8 12.8s-12.8-5.734-12.8-12.8 5.734-12.8 12.8-12.8 12.8 5.734 12.8 12.8z"></path>
<path fill="none" stroke="#fff" style="stroke: var(--color1, #fff)" stroke-linejoin="round" stroke-linecap="round" stroke-miterlimit="4" stroke-width="1.92" d="M20.109 20.070l-3.968-2.368c-0.691-0.41-1.254-1.395-1.254-2.202v-5.248"></path>
</symbol>
<symbol id="icon-ethereum" viewBox="0 0 31 32">
<path fill="none" stroke="#fff" style="stroke: var(--color1, #fff)" stroke-linejoin="round" stroke-linecap="round" stroke-miterlimit="10" stroke-width="1.92" d="M8.832 12.288l6.144-2.688c0.256-0.128 0.512-0.128 0.896 0l6.144 2.688c0.512 0.256 1.024-0.384 0.64-0.896l-6.4-7.808c-0.384-0.512-1.152-0.512-1.536 0l-6.4 7.808c-0.512 0.512 0 1.152 0.512 0.896zM8.832 19.712l6.144 2.688c0.256 0.128 0.512 0.128 0.896 0l6.144-2.688c0.512-0.256 1.024 0.384 0.64 0.896l-6.4 7.808c-0.384 0.512-1.152 0.512-1.536 0l-6.4-7.808c-0.512-0.512 0-1.152 0.512-0.896zM15.36 12.672l-6.656 3.328 6.656 3.328 6.656-3.328-6.656-3.328z"></path>
</symbol>
</defs>
</svg>
