<svg aria-hidden="true" style="position: absolute; width: 0; height: 0; overflow: hidden;" version="1.1" xmlns="http://www.w3.org/2000/svg" xmlns:xlink="http://www.w3.org/1999/xlink">
<defs>
<symbol id="icon-facebook" viewBox="0 0 33 32">
<path fill="#d6ef0e" style="fill: var(--color1, #d6ef0e)" d="M28.303 0h-23.272c-2.41 0-4.364 1.954-4.364 4.364v0 23.272c0 2.41 1.954 4.364 4.364 4.364v0h23.272c2.41 0 4.364-1.954 4.364-4.364v0-23.272c0-2.41-1.954-4.364-4.364-4.364v0z"></path>
<path fill="#090f1d" style="fill: var(--color2, #090f1d)" d="M21.736 14.107l-0.321 2.787c-0.028 0.262-0.247 0.464-0.513 0.467h-2.91l-0.013 8.264c0 0.001 0 0.002 0 0.003 0 0.203-0.163 0.369-0.365 0.373h-2.947c-0 0-0 0-0 0-0.201 0-0.364-0.163-0.364-0.364 0-0.005 0-0.010 0-0.015l-0 0.001v-8.261h-2.181c-0.286-0.004-0.516-0.236-0.516-0.523 0-0.002 0-0.004 0-0.006v0l-0.012-2.787c-0-0.002-0-0.004-0-0.007 0-0.287 0.231-0.52 0.517-0.524h2.192v-2.691c0-3.124 1.855-4.824 4.575-4.824h2.229c0.287 0.003 0.519 0.236 0.519 0.524 0 0.002 0 0.005-0 0.007v-0 2.347c0 0.002 0 0.004 0 0.007 0 0.287-0.232 0.52-0.518 0.523h-1.367c-1.48 0-1.767 0.728-1.767 1.779v2.329h3.249c0.287 0.004 0.518 0.237 0.518 0.524 0 0.024-0.002 0.047-0.005 0.069l0-0.003z"></path>
</symbol>
<symbol id="icon-telegram" viewBox="0 0 33 32">
<path fill="#fff" style="fill: var(--color3, #fff)" d="M28.303 0h-23.272c-2.41 0-4.364 1.954-4.364 4.364v0 23.272c0 2.41 1.954 4.364 4.364 4.364v0h23.272c2.41 0 4.364-1.954 4.364-4.364v0-23.272c0-2.41-1.954-4.364-4.364-4.364v0z"></path>
<path fill="#090f1d" style="fill: var(--color2, #090f1d)" d="M25.383 8.273l-0.331 0.12-17.96 6.471c-0.249 0.078-0.426 0.306-0.426 0.575 0 0.289 0.204 0.53 0.475 0.588l0.004 0.001 4.648 1.272 0.867 2.547 0.868 2.544c0.125 0.307 0.422 0.52 0.768 0.52 0.218 0 0.417-0.085 0.565-0.223l-0 0 2.4-2.269 4.717 3.197c0.577 0.393 1.399 0.103 1.547-0.545l3.123-13.801c0.153-0.684-0.567-1.245-1.264-0.996zM23.089 11.336l-8.496 6.945c-0.081 0.065-0.137 0.16-0.152 0.267l-0 0.002-0.085 0.707-0.235 1.981c0 0.002 0 0.004 0 0.007 0 0.048-0.037 0.087-0.084 0.090l-0 0c-0.002 0-0.004 0-0.006 0-0.048 0-0.087-0.036-0.091-0.082l-0-0-0.66-1.981-0.683-2.027c-0.012-0.037-0.019-0.080-0.019-0.124 0-0.155 0.086-0.29 0.213-0.36l0.002-0.001 10.033-5.749c0.231-0.133 0.467 0.159 0.264 0.325z"></path>
</symbol>
<symbol id="icon-twitter" viewBox="0 0 33 32">
<path fill="#fff" style="fill: var(--color3, #fff)" d="M28.303 0h-23.272c-2.41 0-4.364 1.954-4.364 4.364v0 23.272c0 2.41 1.954 4.364 4.364 4.364v0h23.272c2.41 0 4.364-1.954 4.364-4.364v0-23.272c0-2.41-1.954-4.364-4.364-4.364v0z"></path>
<path fill="#090f1d" style="fill: var(--color2, #090f1d)" d="M26.628 9.947c-0.487 0.722-1.053 1.343-1.698 1.871l-0.015 0.012c-0.168 0.134-0.275 0.339-0.275 0.569 0 0.001 0 0.001 0 0.002v-0 0.067c-0.008 1.505-0.292 2.941-0.803 4.265l0.028-0.082c-0.555 1.472-1.326 2.739-2.29 3.832l0.012-0.013c-1.296 1.472-2.956 2.593-4.841 3.224l-0.079 0.023c-1.14 0.383-2.453 0.604-3.817 0.604-0.022 0-0.044-0-0.066-0h0.003c-2.188-0.002-4.236-0.598-5.994-1.634l0.055 0.030c-0.103-0.060-0.172-0.17-0.172-0.295 0-0.030 0.004-0.058 0.011-0.086l-0.001 0.002c0.038-0.143 0.166-0.247 0.319-0.247 0.001 0 0.002 0 0.003 0h0.499c1.587 0 3.135-0.475 4.449-1.361-1.614-0.271-2.908-1.405-3.406-2.901l-0.009-0.031c-0.007-0.020-0.010-0.043-0.010-0.067 0-0.125 0.101-0.227 0.227-0.227 0.014 0 0.028 0.001 0.041 0.004l-0.001-0c0.24 0.045 0.484 0.069 0.728 0.069h0.091c-1.499-0.701-2.519-2.196-2.519-3.929 0-0.017 0-0.035 0-0.052l-0 0.003c0.001-0.124 0.102-0.224 0.227-0.224 0.040 0 0.078 0.010 0.111 0.029l-0.001-0.001c0.309 0.172 0.64 0.3 0.983 0.381-0.792-0.783-1.282-1.87-1.282-3.071 0-0.797 0.216-1.544 0.593-2.186l-0.011 0.020c0.041-0.065 0.112-0.108 0.193-0.108 0.068 0 0.129 0.030 0.171 0.077l0 0c1.88 2.311 4.623 3.858 7.731 4.146l0.045 0.003h0.016c0.047-0.002 0.089-0.022 0.119-0.055l0-0c0.024-0.027 0.039-0.064 0.039-0.103 0-0.007-0-0.014-0.001-0.020l0 0.001c-0.017-0.147-0.026-0.318-0.026-0.491 0-0.386 0.047-0.76 0.135-1.119l-0.007 0.032c0.108-0.453 0.293-0.883 0.545-1.273 0.53-0.823 1.319-1.439 2.25-1.737l0.030-0.008c0.408-0.132 0.877-0.209 1.365-0.211h0.001c0.002 0 0.004 0 0.006 0 1.094 0 2.093 0.408 2.852 1.080l-0.005-0.004c0.096 0.086 0.223 0.14 0.362 0.143h0.001c0.047-0.001 0.092-0.008 0.134-0.020l-0.004 0.001c0.799-0.205 1.5-0.504 2.142-0.891l-0.036 0.020c0.033-0.020 0.073-0.032 0.116-0.032 0.125 0 0.227 0.101 0.227 0.227 0 0.025-0.004 0.049-0.011 0.071l0-0.002c-0.233 0.713-0.623 1.321-1.132 1.805l-0.002 0.002c0.472-0.113 0.933-0.268 1.377-0.467 0.026-0.011 0.056-0.018 0.088-0.018 0.125 0 0.227 0.101 0.227 0.227 0 0.046-0.014 0.089-0.038 0.125l0.001-0.001z"></path>
</symbol>
<symbol id="icon-linkedin" viewBox="0 0 33 32">
<path fill="#fff" style="fill: var(--color3, #fff)" d="M28.303 0h-23.272c-2.41 0-4.364 1.954-4.364 4.364v0 23.272c0 2.41 1.954 4.364 4.364 4.364v0h23.272c2.41 0 4.364-1.954 4.364-4.364v0-23.272c0-2.41-1.954-4.364-4.364-4.364v0z"></path>
<path fill="#090f1d" style="fill: var(--color2, #090f1d)" d="M12.193 8.727c0 1.506-1.221 2.727-2.727 2.727s-2.727-1.221-2.727-2.727v0c0-1.506 1.221-2.727 2.727-2.727s2.727 1.221 2.727 2.727v0zM11.576 13.273v12.048c0 0.001 0 0.003 0 0.004 0 0.373-0.302 0.675-0.675 0.675 0 0 0 0 0 0h-2.875c-0 0-0.001 0-0.001 0-0.373 0-0.675-0.302-0.675-0.675 0-0 0-0.001 0-0.001v0-12.051c0-0 0-0.001 0-0.001 0-0.373 0.303-0.676 0.676-0.676 0 0 0 0 0 0h2.875c0.373 0.001 0.675 0.303 0.675 0.676 0 0 0 0.001 0 0.001v-0zM26.601 19.545v5.833c0 0.001 0 0.002 0 0.003 0 0.342-0.277 0.619-0.619 0.619-0.001 0-0.002 0-0.003 0h-3.092c-0.343 0-0.621-0.278-0.621-0.621v0-5.653c0-0.844 0.248-3.693-2.205-3.693-1.9 0-2.287 1.949-2.364 2.827v6.52c0 0 0 0 0 0 0 0.34-0.274 0.617-0.613 0.621h-2.984c-0.343-0.001-0.62-0.279-0.62-0.621 0 0 0 0 0 0v0-12.159c0-0.001 0-0.002 0-0.003 0-0.342 0.277-0.619 0.619-0.619 0 0 0.001 0 0.001 0h2.985c0.343 0 0.621 0.278 0.621 0.621v0 1.051c0.707-1.057 1.751-1.875 3.981-1.875 4.943 0 4.913 4.615 4.913 7.149z"></path>
</symbol>
</defs>
</svg>
